<svg xmlns="http://www.w3.org/2000/svg" width="158" height="40" viewBox="0 0 158 40">
    <g fill="none" fill-rule="evenodd">
        <path fill="#01CE9F" d="M19.116 10.294c-4.75-2.836-3.646-7.357-7.844-8.905 0 0 .931-1.389 2.599-1.389 4.057 0 5.05 4.258 8.469 6.86 3.42 2.603 9.363 1.519 12.704-.318 6.266-3.445 9.018.19 9.018.19-9.198 7.067-20.196 6.397-24.946 3.562zm21.07 8.5c2-3.78 5.165-6.198 7.334-7.512.83.79 1.735 1.644 2.69 2.534a1.762 1.762 0 0 1-.45.373c-1.753.997-4.757 3.08-6.516 6.406-.426.804-1.352 1.152-2.167.816h-.003c-.99-.409-1.404-1.64-.888-2.617zm9.28 3.965c1.055-1.743 3.454-3.99 5.133-5.323.922.837 1.856 1.673 2.784 2.487-1.24.875-4.034 3.337-4.96 4.882a1.697 1.697 0 0 1-2.116.705c-1.038-.43-1.443-1.758-.841-2.751zm12.152-.195a71.203 71.203 0 0 0 2.938 2.074c-.034.03-.064.06-.1.088-.188.138-2.795 2.246-2.973 2.432-.488.512-1.263.668-1.937.416l-.004-.002c-1.145-.43-1.514-1.83-.686-2.7.24-.252 1.83-1.557 2.762-2.308zm21.045 11.517c.212.319.337.7.337 1.11v2.774C83 39.089 82.071 40 80.925 40H36.7c-2.373 0-4.029-1.977-6.91-1.977-2.88 0-5.014 1.977-7.615 1.977H2.045A2.063 2.063 0 0 1 0 38.3c.183-1.67 1.243-10.702 3.685-19.838 4.054.244 7.736 3.699 7.2 7.495-.558 3.938-.984 5.605-.984 7.215 0 1.61 2.5 3.478 7 3.478 4.502 0 7.807-3.494 12.993-3.494 5.185 0 8.201 3.916 13.217 3.916s25.665-3.916 25.665-3.916v-6.16h4.454c4.515 0 8.313 3.004 9.433 7.085z"/>
        <path fill="#222529" d="M94.702 11.034v8.276h-3.016V0h3.016v8.276h3.429V0h3.071v19.31h-3.071v-8.276h-3.429zM110.088 0l3.072 19.31h-3.045l-.52-3.503h-3.703l-.521 3.503h-2.77L105.673 0h4.415zm-2.359 3.42l-1.453 9.766h2.907l-1.454-9.765zM119.001 0c3.017 0 4.498 1.683 4.498 4.772v2.51c0 3.09-1.481 4.773-4.498 4.773h-1.426v7.255h-3.017V0h4.443zm0 2.759h-1.426v6.538h1.426c.96 0 1.481-.442 1.481-1.821V4.579c0-1.379-.52-1.82-1.48-1.82zM129.341 0c3.016 0 4.497 1.683 4.497 4.772v2.51c0 3.09-1.48 4.773-4.497 4.773h-1.427v7.255h-3.016V0h4.443zm0 2.759h-1.427v6.538h1.427c.96 0 1.48-.442 1.48-1.821V4.579c0-1.379-.52-1.82-1.48-1.82zm8.666 16.551v-6.4L134.195 0h3.154l2.303 8.8 2.304-8.8h2.88l-3.812 12.91v6.4h-3.017zM99.474 40l-1.097-10.29L97.28 40h-4.14L91 20.69h2.935l1.618 15.227 1.453-15.227h2.907l1.509 15.338 1.563-15.338h2.633L103.478 40h-4.004zm13.932-19.31L116.478 40h-3.044l-.521-3.503h-3.703L108.69 40h-2.77l3.071-19.31h4.415zm-2.358 3.42l-1.454 9.766h2.907l-1.453-9.766zM117.877 40V20.69h3.017V37.24h4.964V40h-7.981zm16.18 0l-2.934-7.697-.932 1.766V40h-3.017V20.69h3.017v8.413l3.949-8.413h3.017l-4.196 8.607L137.157 40h-3.1zm7.488-16.552v5.38h4.141v2.758h-4.141v5.655h5.21V40h-8.227V20.69h8.228v2.758h-5.211zM158 40h-3.072c-.164-.497-.274-.8-.274-2.372v-3.035c0-1.793-.603-2.455-1.975-2.455h-1.042V40h-3.016V20.69h4.552c3.127 0 4.47 1.462 4.47 4.441v1.517c0 1.986-.63 3.283-1.974 3.918 1.508.634 2.002 2.096 2.002 4.11v2.98c0 .937.027 1.627.329 2.344zm-4.91-16.552h-1.453v5.931h1.18c1.124 0 1.81-.496 1.81-2.041v-1.904c0-1.379-.467-1.986-1.536-1.986z"/>
    </g>
</svg>
